<svg xmlns="http://www.w3.org/2000/svg" viewBox="0 0 1024 1024" width="200" height="200"><path d="M512 512m-512 0a512 512 0 1 0 1024 0 512 512 0 1 0-1024 0Z" fill="#6080FE"/><path d="M703.3856 353.3824C675.98336 336.32256 645.12 327.68 611.6352 327.68c-29.06112 0-58.69568 6.67648-86.77376 19.39456v254.40256a12.96384 12.96384 0 0 1-12.86144 13.04576 12.96384 12.96384 0 0 1-12.86144-13.04576V347.07456c-28.0576-12.6976-57.71264-19.39456-86.77376-19.39456-33.4848 0-64.34816 8.64256-91.7504 25.68192-8.27392 5.14048-13.4144 14.45888-13.4144 24.33024v281.72288c0 10.28096 5.50912 19.82464 14.35648 24.86272 8.74496 4.95616 19.82464 4.75136 28.40576-0.55296 18.432-11.4688 39.40352-17.28512 62.40256-17.28512 28.13952 0 58.32704 9.1136 84.95104 25.66144a27.60704 27.60704 0 0 0 29.36832 0c26.624-16.54784 56.79104-25.66144 84.95104-25.66144 22.97856 0 43.97056 5.81632 62.42304 17.28512 8.4992 5.28384 19.61984 5.5296 28.38528 0.55296 8.84736-5.03808 14.35648-14.56128 14.35648-24.86272V377.69216c0-9.87136-5.14048-19.18976-13.4144-24.30976z" fill="#FFFFFF"/></svg>
